<svg xmlns="http://www.w3.org/2000/svg" viewBox="0 0 48 48">
  <path fill="#FFC107" d="M43.611 20.083H42V20H24v8h11.303C33.651 32.657 29.197 36 24 36c-6.627 0-12-5.373-12-12s5.373-12 12-12c3.059 0 5.842 1.154 7.959 3.041l5.657-5.657C34.006 6.053 29.193 4 24 4 12.955 4 4 12.955 4 24s8.955 20 20 20 20-8.955 20-20c0-1.341-.138-2.65-.389-3.917z"/>
  <path fill="#FF3D00" d="M6.306 14.691l6.571 4.819C14.657 16.108 19.01 12 24 12c3.059 0 5.842 1.154 7.959 3.041l5.657-5.657C34.006 6.053 29.193 4 24 4c-7.682 0-14.35 4.325-17.694 10.691z"/>
  <path fill="#4CAF50" d="M24 44c5.098 0 9.823-1.956 13.359-5.141l-6.172-5.224C29.133 35.188 26.695 36 24 36c-5.177 0-9.617-3.321-11.289-7.946l-6.52 5.025C9.496 39.556 16.227 44 24 44z"/>
  <path fill="#1976D2" d="M43.611 20.083H42V20H24v8h11.303c-.799 2.246-2.246 4.152-4.116 5.636l.003-.002 6.172 5.224C36.92 39.262 44 34 44 24c0-1.341-.138-2.65-.389-3.917z"/>
</svg>

